<svg width="530" height="432" viewBox="0 0 530 432" fill="none" xmlns="http://www.w3.org/2000/svg">
<mask id="mask0_54_1390" style="mask-type:luminance" maskUnits="userSpaceOnUse" x="0" y="0" width="530" height="432">
<path d="M0 0.000351242H529.997V431.528H0V0.000351242Z" fill="white"/>
</mask>
<g mask="url(#mask0_54_1390)">
<path d="M129.992 249.224C162.206 218.482 194.419 187.74 226.634 156.998C233.379 149.482 242.699 142.589 253.294 143.546C267.387 144.82 276.79 158.72 277.415 159.796C308.987 190.278 338.159 218.445 369.731 248.928L369.847 279.973C369.855 281.94 371.495 283.532 373.517 283.532H385.772C387.391 283.532 388.701 282.254 388.701 280.68V251.746H442.621L369.519 179.6V116.534H374.017C378.405 116.534 381.962 113.073 381.962 108.804V95.9611C381.962 91.7198 378.428 88.2811 374.07 88.2811H325.416C318.309 88.2811 312.58 93.9451 312.692 100.86L312.808 108.069C312.882 112.625 316.628 116.318 321.31 116.448L324.413 116.534L325.451 135.706L252.722 65.7251C250.851 63.8784 249.144 64.2304 247.267 66.0718L55.8535 252.504L111.876 252.061C111.748 257.548 111.799 263.22 111.876 268.902V310.173C111.876 312.306 113.655 314.037 115.848 314.037H125.642C127.835 314.037 129.612 312.306 129.612 310.173V282.166" fill="#1C75BC"/>
<path d="M295.123 264.849H233.368V261.882H295.123V264.849Z" fill="#1C75BC"/>
<path d="M265.378 299.251H262.411V230.519H265.378V299.251Z" fill="#1C75BC"/>
</g>
<mask id="mask1_54_1390" style="mask-type:luminance" maskUnits="userSpaceOnUse" x="419" y="224" width="45" height="78">
<path d="M419.099 301.108H463.724V224.199H419.099V301.108Z" fill="white"/>
</mask>
<g mask="url(#mask1_54_1390)">
<path d="M449.601 297.196C452.179 297.196 454.063 296.456 455.256 294.972C456.448 293.491 457.239 291.686 457.625 289.559H458.688L457.721 298.743H411.609V297.776C412.252 297.776 412.752 297.631 413.108 297.342C413.461 297.051 413.703 296.712 413.832 296.326C414.025 295.939 414.123 295.49 414.123 294.972V234.746C414.123 234.231 414.025 233.779 413.832 233.393C413.703 233.071 413.461 232.765 413.108 232.475C412.752 232.185 412.252 232.039 411.609 232.039V231.073H457.721L458.688 240.256H457.625C457.239 238.066 456.448 236.23 455.256 234.746C454.063 233.264 452.179 232.523 449.601 232.523H423.113V262.878H443.897C444.864 262.814 445.735 262.555 446.508 262.104C447.151 261.718 447.731 261.106 448.248 260.267C448.763 259.431 449.021 258.238 449.021 256.691H449.988V270.611H449.021C449.021 269.065 448.763 267.872 448.248 267.035C447.731 266.198 447.151 265.584 446.508 265.198C445.735 264.747 444.864 264.49 443.897 264.424H423.113V297.196H449.601Z" fill="#FFDE17"/>
</g>
<mask id="mask2_54_1390" style="mask-type:luminance" maskUnits="userSpaceOnUse" x="0" y="0" width="530" height="432">
<path d="M0 0.000314769H529.997V431.528H0V0.000314769Z" fill="white"/>
</mask>
<g mask="url(#mask2_54_1390)">
<path d="M223.45 232.065C222.87 232.065 222.4 232.21 222.047 232.499C221.692 232.79 221.451 233.097 221.323 233.418C221.13 233.805 221.032 234.257 221.032 234.771V294.998C221.032 295.515 221.13 295.965 221.323 296.351C221.451 296.738 221.692 297.077 222.047 297.366C222.4 297.657 222.87 297.802 223.45 297.802V298.769H209.528V297.802C210.172 297.802 210.672 297.657 211.027 297.366C211.38 297.077 211.622 296.738 211.752 296.351C211.946 295.965 212.042 295.515 212.042 294.998V265.706H182.17V294.998C182.17 295.515 182.267 295.965 182.46 296.351C182.588 296.738 182.831 297.077 183.186 297.366C183.539 297.657 184.007 297.802 184.587 297.802V298.769H170.667V297.802C171.31 297.802 171.81 297.657 172.164 297.366C172.519 297.077 172.76 296.738 172.89 296.351C173.083 295.965 173.18 295.515 173.18 294.998V234.771C173.18 234.257 173.083 233.805 172.89 233.418C172.76 233.097 172.519 232.79 172.164 232.499C171.81 232.21 171.31 232.065 170.667 232.065V231.002H184.587V232.065C184.007 232.065 183.539 232.21 183.186 232.499C182.831 232.79 182.588 233.097 182.46 233.418C182.267 233.805 182.17 234.257 182.17 234.771V264.159H212.042V234.771C212.042 234.257 211.946 233.805 211.752 233.418C211.622 233.097 211.38 232.79 211.027 232.499C210.672 232.21 210.172 232.065 209.528 232.065V231.002H223.45V232.065Z" fill="#FFDE17"/>
<path d="M264.245 298.285C271.462 298.285 277.166 295.433 281.355 289.729C285.545 284.025 287.639 275.761 287.639 264.933C287.639 254.107 285.545 245.84 281.355 240.137C277.166 234.433 271.462 231.581 264.245 231.581C260.635 231.581 257.397 232.324 254.529 233.805C251.661 235.288 249.213 237.464 247.182 240.331C245.153 243.199 243.589 246.695 242.494 250.819C241.397 254.944 240.85 259.649 240.85 264.933C240.85 270.219 241.397 274.924 242.494 279.047C243.589 283.173 245.153 286.669 247.182 289.536C249.213 292.404 251.661 294.58 254.529 296.063C257.397 297.545 260.635 298.285 264.245 298.285ZM264.245 230.035C270.431 230.035 275.619 231.035 279.809 233.032C283.998 235.029 287.381 237.656 289.959 240.911C292.537 244.165 294.39 247.887 295.518 252.076C296.645 256.265 297.21 260.552 297.21 264.933C297.21 269.317 296.645 273.603 295.518 277.791C294.39 281.981 292.537 285.703 289.959 288.956C287.381 292.212 283.998 294.839 279.809 296.835C275.619 298.833 270.431 299.832 264.245 299.832C258.058 299.832 252.869 298.833 248.681 296.835C244.49 294.839 241.107 292.212 238.53 288.956C235.951 285.703 234.098 281.981 232.971 277.791C231.843 273.603 231.279 269.317 231.279 264.933C231.279 260.552 231.843 256.265 232.971 252.076C234.098 247.887 235.951 244.165 238.53 240.911C241.107 237.656 244.49 235.029 248.681 233.032C252.869 231.035 258.058 230.035 264.245 230.035Z" fill="#1C75BC"/>
<path d="M371.261 232.065C370.681 232.065 370.211 232.21 369.858 232.499C369.503 232.79 369.262 233.097 369.134 233.418C368.941 233.805 368.843 234.257 368.843 234.771V294.998C368.843 295.515 368.941 295.965 369.134 296.351C369.262 296.738 369.503 297.077 369.858 297.366C370.211 297.657 370.681 297.802 371.261 297.802V298.769H357.339V297.802C357.983 297.802 358.483 297.657 358.838 297.366C359.191 297.077 359.433 296.738 359.563 296.351C359.757 295.965 359.853 295.515 359.853 294.998V236.414L336.071 292.485H334.525L310.261 238.251V292.678C310.323 293.645 310.582 294.483 311.034 295.191C311.421 295.837 312.033 296.417 312.87 296.931C313.707 297.449 314.901 297.705 316.447 297.705V298.769H302.527V297.705C304.074 297.705 305.266 297.449 306.103 296.931C306.941 296.417 307.554 295.837 307.941 295.191C308.391 294.483 308.649 293.645 308.714 292.678V236.609C308.649 236.286 308.535 235.869 308.375 235.351C308.214 234.837 307.907 234.337 307.458 233.853C307.006 233.37 306.394 232.951 305.621 232.597C304.847 232.242 303.847 232.065 302.623 232.065V231.002H316.158C316.931 231.002 317.542 231.387 317.994 232.162L339.551 280.401L360.433 231.098L371.261 231.002V232.065Z" fill="#FFDE17"/>
<path d="M394.945 232.065C394.365 232.065 393.897 232.21 393.544 232.499C393.189 232.79 392.947 233.097 392.819 233.418C392.625 233.805 392.528 234.257 392.528 234.771V294.998C392.528 295.515 392.625 295.965 392.819 296.351C392.947 296.738 393.189 297.077 393.544 297.366C393.897 297.657 394.365 297.802 394.945 297.802V298.769H381.025V297.802C381.668 297.802 382.168 297.657 382.523 297.366C382.877 297.077 383.119 296.738 383.248 296.351C383.441 295.965 383.539 295.515 383.539 294.998V234.771C383.539 234.257 383.441 233.805 383.248 233.418C383.119 233.097 382.877 232.79 382.523 232.499C382.168 232.21 381.668 232.065 381.025 232.065V231.002H394.945V232.065Z" fill="#FFDE17"/>
</g>
<mask id="mask3_54_1390" style="mask-type:luminance" maskUnits="userSpaceOnUse" x="399" y="231" width="21" height="68">
<path d="M399.579 298.769H419.443V231.098H399.579V298.769Z" fill="white"/>
</mask>
<g mask="url(#mask3_54_1390)">
<mask id="mask4_54_1390" style="mask-type:luminance" maskUnits="userSpaceOnUse" x="-43691" y="-43258" width="87381" height="87381">
<path d="M-43690.7 -43257.8H43689.3V44122.2H-43690.7V-43257.8Z" fill="url(#paint0_linear_54_1390)"/>
</mask>
<g mask="url(#mask4_54_1390)">
<path d="M399.578 298.77H419.442V231.099H399.578V298.77Z" fill="url(#paint1_linear_54_1390)"/>
</g>
</g>
<defs>
<linearGradient id="paint0_linear_54_1390" x1="419.44" y1="264.937" x2="399.577" y2="264.937" gradientUnits="userSpaceOnUse">
<stop stop-color="white"/>
<stop offset="0.964166" stop-color="white" stop-opacity="0.0999924"/>
<stop offset="0.999339" stop-color="white" stop-opacity="0.0999924"/>
<stop offset="1" stop-color="white" stop-opacity="0.0999924"/>
</linearGradient>
<linearGradient id="paint1_linear_54_1390" x1="419.441" y1="264.935" x2="399.578" y2="264.935" gradientUnits="userSpaceOnUse">
<stop stop-color="#FFDE17"/>
<stop offset="0.964166" stop-color="white"/>
<stop offset="0.999339" stop-color="white"/>
<stop offset="1" stop-color="white"/>
</linearGradient>
</defs>
</svg>
