<?xml version="1.0" encoding="UTF-8" standalone="no"?>
<!-- Created with Inkscape (http://www.inkscape.org/) -->

<svg
   version="1.1"
   id="svg2"
   width="529.99731"
   height="431.52802"
   viewBox="0 0 529.99731 431.52802"
   xmlns="http://www.w3.org/2000/svg"
   xmlns:svg="http://www.w3.org/2000/svg">
  <defs
     id="defs6">
    <clipPath
       clipPathUnits="userSpaceOnUse"
       id="clipPath16">
      <path
         d="M 0,323.646 H 397.498 V 0 H 0 Z"
         id="path14" />
    </clipPath>
    <clipPath
       clipPathUnits="userSpaceOnUse"
       id="clipPath36">
      <path
         d="m 314.324,97.815 h 33.469 v 57.682 h -33.469 z"
         id="path34" />
    </clipPath>
    <clipPath
       clipPathUnits="userSpaceOnUse"
       id="clipPath48">
      <path
         d="M 0,323.646 H 397.498 V 0 H 0 Z"
         id="path46" />
    </clipPath>
    <clipPath
       clipPathUnits="userSpaceOnUse"
       id="clipPath72">
      <path
         d="m 299.684,99.57 h 14.898 v 50.753 h -14.898 z"
         id="path70" />
    </clipPath>
    <linearGradient
       x1="0"
       y1="0"
       x2="1"
       y2="0"
       gradientUnits="userSpaceOnUse"
       gradientTransform="matrix(-14.897546,0,0,-14.897546,314.58115,124.94614)"
       spreadMethod="pad"
       id="linearGradient90">
      <stop
         style="stop-opacity:1;stop-color:#ffffff"
         offset="0"
         id="stop82" />
      <stop
         style="stop-opacity:0.09999237;stop-color:#ffffff"
         offset="0.96416622"
         id="stop84" />
      <stop
         style="stop-opacity:0.09999237;stop-color:#ffffff"
         offset="0.999339"
         id="stop86" />
      <stop
         style="stop-opacity:0.09999237;stop-color:#ffffff"
         offset="1"
         id="stop88" />
    </linearGradient>
    <mask
       maskUnits="userSpaceOnUse"
       x="0"
       y="0"
       width="1"
       height="1"
       id="mask92">
      <g
         id="g102">
        <g
           id="g100">
          <g
             id="g98">
            <g
               id="g96">
              <path
                 d="M -32768,32767 H 32767 V -32768 H -32768 Z"
                 style="fill:url(#linearGradient90);stroke:none"
                 id="path94" />
            </g>
          </g>
        </g>
      </g>
    </mask>
    <linearGradient
       x1="0"
       y1="0"
       x2="1"
       y2="0"
       gradientUnits="userSpaceOnUse"
       gradientTransform="matrix(-14.897546,0,0,-14.897546,314.58115,124.94614)"
       spreadMethod="pad"
       id="linearGradient116">
      <stop
         style="stop-opacity:1;stop-color:#ffde17"
         offset="0"
         id="stop108" />
      <stop
         style="stop-opacity:1;stop-color:#ffffff"
         offset="0.96416622"
         id="stop110" />
      <stop
         style="stop-opacity:1;stop-color:#ffffff"
         offset="0.999339"
         id="stop112" />
      <stop
         style="stop-opacity:1;stop-color:#ffffff"
         offset="1"
         id="stop114" />
    </linearGradient>
  </defs>
  <g
     id="g8"
     transform="matrix(1.3333333,0,0,-1.3333333,0,431.528)">
    <g
       id="g10">
      <g
         id="g12"
         clip-path="url(#clipPath16)">
        <g
           id="g18"
           transform="translate(97.4941,136.7287)">
          <path
             d="m 0,0 c 24.16,23.056 48.32,46.113 72.481,69.169 5.059,5.637 12.049,10.807 19.995,10.089 10.57,-0.955 17.622,-11.38 18.091,-12.187 23.679,-22.862 45.558,-43.987 69.237,-66.849 l 0.087,-23.284 c 0.006,-1.475 1.236,-2.669 2.753,-2.669 h 9.191 c 1.214,0 2.197,0.958 2.197,2.139 v 21.7 h 40.44 l -54.827,54.11 v 47.299 h 3.374 c 3.291,0 5.958,2.596 5.958,5.798 v 9.632 c 0,3.181 -2.65,5.76 -5.919,5.76 h -36.49 c -5.33,0 -9.627,-4.248 -9.543,-9.434 l 0.087,-5.407 c 0.055,-3.417 2.865,-6.187 6.376,-6.284 l 2.328,-0.065 0.778,-14.379 -54.547,52.486 c -1.403,1.385 -2.683,1.121 -4.091,-0.26 L -55.604,-2.46 l 42.017,0.332 c -0.096,-4.115 -0.058,-8.369 0,-12.631 v -30.953 c 0,-1.6 1.334,-2.898 2.979,-2.898 h 7.345 c 1.645,0 2.978,1.298 2.978,2.898 v 21.005"
             style="fill:#1c75bc;fill-opacity:1;fill-rule:nonzero;stroke:none"
             id="path20" />
        </g>
        <g
           id="g22"
           transform="translate(355.4017,162.8756)">
          <path
             d="m 0,0 h -174.702 l 19.564,-120.934 126.951,6.638 z"
             style="fill:#ffffff;fill-opacity:1;fill-rule:nonzero;stroke:none"
             id="path24" />
        </g>
        <path
           d="m 221.342,125.01 h -46.316 v 2.225 h 46.316 z"
           style="fill:#1c75bc;fill-opacity:1;fill-rule:nonzero;stroke:none"
           id="path26" />
        <path
           d="m 199.033,99.208 h -2.225 v 51.549 h 2.225 z"
           style="fill:#1c75bc;fill-opacity:1;fill-rule:nonzero;stroke:none"
           id="path28" />
      </g>
    </g>
    <g
       id="g30">
      <g
         id="g32"
         clip-path="url(#clipPath36)">
        <g
           id="g38"
           transform="translate(337.2013,100.7491)">
          <path
             d="m 0,0 c 1.933,0 3.346,0.555 4.241,1.668 0.894,1.111 1.487,2.465 1.777,4.06 H 6.815 L 6.09,-1.16 h -34.584 v 0.725 c 0.482,0 0.857,0.109 1.124,0.326 0.265,0.218 0.446,0.472 0.543,0.762 0.145,0.29 0.218,0.627 0.218,1.015 v 45.17 c 0,0.386 -0.073,0.725 -0.218,1.015 -0.097,0.241 -0.278,0.471 -0.543,0.688 -0.267,0.218 -0.642,0.327 -1.124,0.327 v 0.725 H 6.09 L 6.815,42.705 H 6.018 C 5.728,44.348 5.135,45.725 4.241,46.838 3.346,47.949 1.933,48.505 0,48.505 H -19.866 V 25.739 h 15.588 c 0.725,0.048 1.378,0.242 1.958,0.58 0.482,0.29 0.917,0.749 1.305,1.378 0.386,0.627 0.58,1.522 0.58,2.682 H 0.29 v -10.44 h -0.725 c 0,1.16 -0.194,2.054 -0.58,2.682 -0.388,0.628 -0.823,1.088 -1.305,1.378 -0.58,0.338 -1.233,0.531 -1.958,0.58 H -19.866 V 0 Z"
             style="fill:#ffde17;fill-opacity:1;fill-rule:nonzero;stroke:none"
             id="path40" />
        </g>
      </g>
    </g>
    <g
       id="g42">
      <g
         id="g44"
         clip-path="url(#clipPath48)">
        <g
           id="g50"
           transform="translate(167.5876,149.5974)">
          <path
             d="M 0,0 C -0.435,0 -0.787,-0.109 -1.052,-0.326 -1.318,-0.544 -1.499,-0.774 -1.595,-1.015 -1.74,-1.305 -1.813,-1.644 -1.813,-2.03 V -47.2 c 0,-0.388 0.073,-0.725 0.218,-1.015 0.096,-0.29 0.277,-0.544 0.543,-0.761 0.265,-0.218 0.617,-0.327 1.052,-0.327 v -0.725 h -10.441 v 0.725 c 0.483,0 0.858,0.109 1.124,0.327 0.265,0.217 0.446,0.471 0.544,0.761 0.145,0.29 0.217,0.627 0.217,1.015 v 21.969 H -30.96 V -47.2 c 0,-0.388 0.073,-0.725 0.218,-1.015 0.096,-0.29 0.278,-0.544 0.544,-0.761 0.265,-0.218 0.616,-0.327 1.051,-0.327 v -0.725 h -10.44 v 0.725 c 0.482,0 0.857,0.109 1.123,0.327 0.266,0.217 0.447,0.471 0.544,0.761 0.145,0.29 0.218,0.627 0.218,1.015 v 45.17 c 0,0.386 -0.073,0.725 -0.218,1.015 -0.097,0.241 -0.278,0.471 -0.544,0.689 C -38.73,-0.109 -39.105,0 -39.587,0 v 0.797 h 10.44 V 0 c -0.435,0 -0.786,-0.109 -1.051,-0.326 -0.266,-0.218 -0.448,-0.448 -0.544,-0.689 -0.145,-0.29 -0.218,-0.629 -0.218,-1.015 V -24.071 H -8.556 V -2.03 c 0,0.386 -0.072,0.725 -0.217,1.015 -0.098,0.241 -0.279,0.471 -0.544,0.689 C -9.583,-0.109 -9.958,0 -10.441,0 V 0.797 H 0 Z"
             style="fill:#ffde17;fill-opacity:1;fill-rule:nonzero;stroke:none"
             id="path52" />
        </g>
        <g
           id="g54"
           transform="translate(198.1839,99.9321)">
          <path
             d="m 0,0 c 5.413,0 9.691,2.139 12.833,6.417 3.142,4.278 4.713,10.476 4.713,18.597 0,8.12 -1.571,14.32 -4.713,18.597 -3.142,4.278 -7.42,6.417 -12.833,6.417 -2.707,0 -5.136,-0.557 -7.287,-1.668 -2.151,-1.112 -3.987,-2.744 -5.51,-4.894 -1.522,-2.151 -2.695,-4.773 -3.516,-7.866 -0.823,-3.094 -1.233,-6.623 -1.233,-10.586 0,-3.964 0.41,-7.493 1.233,-10.585 0.821,-3.095 1.994,-5.717 3.516,-7.867 1.523,-2.151 3.359,-3.783 5.51,-4.895 C -5.136,0.555 -2.707,0 0,0 m 0,51.188 c 4.64,0 8.531,-0.75 11.673,-2.248 3.142,-1.498 5.679,-3.468 7.613,-5.909 1.933,-2.441 3.323,-5.232 4.169,-8.374 0.845,-3.142 1.269,-6.357 1.269,-9.643 0,-3.288 -0.424,-6.502 -1.269,-9.643 C 22.609,12.228 21.219,9.437 19.286,6.997 17.352,4.555 14.815,2.585 11.673,1.088 8.531,-0.411 4.64,-1.16 0,-1.16 c -4.64,0 -8.532,0.749 -11.673,2.248 -3.143,1.497 -5.68,3.467 -7.613,5.909 -1.934,2.44 -3.324,5.231 -4.169,8.374 -0.846,3.141 -1.269,6.355 -1.269,9.643 0,3.286 0.423,6.501 1.269,9.643 0.845,3.142 2.235,5.933 4.169,8.374 1.933,2.441 4.47,4.411 7.613,5.909 3.141,1.498 7.033,2.248 11.673,2.248"
             style="fill:#1c75bc;fill-opacity:1;fill-rule:nonzero;stroke:none"
             id="path56" />
        </g>
        <g
           id="g58"
           transform="translate(278.4461,149.5974)">
          <path
             d="M 0,0 C -0.435,0 -0.787,-0.109 -1.052,-0.326 -1.318,-0.544 -1.499,-0.774 -1.595,-1.015 -1.74,-1.305 -1.813,-1.644 -1.813,-2.03 V -47.2 c 0,-0.388 0.073,-0.725 0.218,-1.015 0.096,-0.29 0.277,-0.544 0.543,-0.761 0.265,-0.218 0.617,-0.327 1.052,-0.327 v -0.725 h -10.441 v 0.725 c 0.483,0 0.858,0.109 1.124,0.327 0.265,0.217 0.446,0.471 0.544,0.761 0.145,0.29 0.217,0.627 0.217,1.015 v 43.938 l -17.836,-42.053 h -1.16 L -45.75,-4.64 v -40.82 c 0.047,-0.725 0.241,-1.354 0.58,-1.885 0.29,-0.484 0.749,-0.919 1.377,-1.305 0.628,-0.388 1.523,-0.58 2.683,-0.58 v -0.798 h -10.44 v 0.798 c 1.16,0 2.054,0.192 2.682,0.58 0.628,0.386 1.088,0.821 1.378,1.305 0.338,0.531 0.531,1.16 0.58,1.885 v 42.052 c -0.049,0.242 -0.134,0.555 -0.254,0.943 -0.121,0.386 -0.351,0.761 -0.688,1.124 -0.339,0.362 -0.798,0.676 -1.378,0.942 C -49.81,-0.133 -50.56,0 -51.478,0 v 0.797 h 10.151 c 0.58,0 1.038,-0.289 1.377,-0.87 L -23.782,-36.252 -8.121,0.725 0,0.797 Z"
             style="fill:#ffde17;fill-opacity:1;fill-rule:nonzero;stroke:none"
             id="path60" />
        </g>
        <g
           id="g62"
           transform="translate(296.2092,149.5974)">
          <path
             d="M 0,0 C -0.435,0 -0.786,-0.109 -1.051,-0.326 -1.317,-0.544 -1.499,-0.774 -1.595,-1.015 -1.74,-1.305 -1.813,-1.644 -1.813,-2.03 V -47.2 c 0,-0.388 0.073,-0.725 0.218,-1.015 0.096,-0.29 0.278,-0.544 0.544,-0.761 0.265,-0.218 0.616,-0.327 1.051,-0.327 v -0.725 h -10.44 v 0.725 c 0.482,0 0.857,0.109 1.123,0.327 0.266,0.217 0.447,0.471 0.544,0.761 0.145,0.29 0.218,0.627 0.218,1.015 v 45.17 c 0,0.386 -0.073,0.725 -0.218,1.015 -0.097,0.241 -0.278,0.471 -0.544,0.689 C -9.583,-0.109 -9.958,0 -10.44,0 V 0.797 H 0 Z"
             style="fill:#ffde17;fill-opacity:1;fill-rule:nonzero;stroke:none"
             id="path64" />
        </g>
      </g>
    </g>
    <g
       id="g66">
      <g
         id="g68"
         clip-path="url(#clipPath72)">
        <g
           id="g74">
          <g
             id="g76" />
          <g
             id="g104"
             mask="url(#mask92)">
            <g
               id="g106">
              <path
                 d="m 299.684,99.57 h 14.898 v 50.753 h -14.898 z"
                 style="fill:url(#linearGradient116);stroke:none"
                 id="path118" />
            </g>
          </g>
        </g>
      </g>
    </g>
  </g>
</svg>
